<svg width="288" height="250" viewBox="0 0 288 250" fill="none" xmlns="http://www.w3.org/2000/svg">
<path d="M32.3841 144.246H21.8044L20.482 109.862H12.6298L11.2247 144.246H0.64502L8.5798 1.42032H24.4494L32.3841 144.246ZM16.5146 6.71018L13.8697 70.1884L12.6298 101.928H20.482L16.5146 6.71018Z" fill="white"/>
<path d="M50.8986 1.42032V136.312H61.4784V144.246H40.3189V1.42032H50.8986Z" fill="white"/>
<path d="M82.6378 1.42032V136.312H93.2175V144.246H72.0581V1.42032H82.6378Z" fill="white"/>
<path d="M155.208 62.2537C155.208 65.5598 154.602 68.1221 153.39 69.9405C152.177 71.7038 150.579 72.9987 148.596 73.8252C146.612 74.6518 144.353 75.1477 141.818 75.313C139.283 75.4232 136.693 75.4783 134.049 75.4783V144.246H123.469V1.42032H134.049C139.338 1.42032 143.416 1.86114 146.281 2.74278C149.147 3.62443 151.241 4.72648 152.563 6.04894C153.886 7.37141 154.657 8.80408 154.877 10.347C155.098 11.8898 155.208 13.3225 155.208 14.645V62.2537ZM144.628 14.645C144.628 13.3225 144.435 12.3031 144.05 11.5868C143.719 10.8704 143.14 10.347 142.314 10.0163C141.487 9.68572 140.385 9.49286 139.008 9.43776C137.685 9.38265 136.032 9.3551 134.049 9.3551V67.5435C135.371 67.5435 136.666 67.516 137.933 67.4609C139.201 67.4058 140.33 67.2129 141.322 66.8823C142.314 66.5517 143.113 66.0282 143.719 65.3119C144.325 64.5955 144.628 63.5761 144.628 62.2537V14.645Z" fill="white"/>
<path d="M192.237 144.246H181.657L180.335 109.862H172.483L171.078 144.246H160.498L168.433 1.42032H184.302L192.237 144.246ZM176.367 6.71018L173.722 70.1884L172.483 101.928H180.335L176.367 6.71018Z" fill="white"/>
<path d="M223.976 22.5797L221.331 62.2537L216.041 144.246H205.462L197.527 1.42032H208.107L210.751 101.928L218.686 1.42032H229.266L237.201 101.928L239.846 1.42032H250.425L242.491 144.246H231.911L226.621 62.2537L223.976 22.5797Z" fill="white"/>
<path d="M276.875 109.449C276.875 103.608 276.572 98.5939 275.965 94.4061C275.359 90.2182 274.56 86.5815 273.568 83.4957C272.577 80.3549 271.447 77.6273 270.18 75.313C268.912 72.9987 267.617 70.8221 266.295 68.7833C264.972 66.7445 263.678 64.7057 262.41 62.6669C261.143 60.6281 260.013 58.3138 259.021 55.724C258.03 53.1342 257.231 50.1586 256.624 46.7974C256.018 43.381 255.715 39.3034 255.715 34.5646V14.645C255.715 13.3225 255.908 11.8347 256.294 10.1816C256.735 8.47346 257.534 6.90304 258.691 5.47037C259.848 3.98259 261.446 2.74279 263.485 1.75094C265.579 0.703987 268.279 0.180511 271.585 0.180511C274.891 0.180511 277.563 0.703987 279.602 1.75094C281.696 2.74279 283.322 3.98259 284.479 5.47037C285.636 6.90304 286.407 8.47346 286.793 10.1816C287.234 11.8347 287.454 13.3225 287.454 14.645V51.6739H276.875V14.645C276.875 13.3225 276.709 12.248 276.379 11.4215C276.103 10.5398 275.717 9.87858 275.222 9.43776C274.726 8.94183 274.147 8.61122 273.486 8.44591C272.88 8.2255 272.246 8.11529 271.585 8.11529C270.924 8.11529 270.262 8.2255 269.601 8.44591C268.995 8.61122 268.444 8.94183 267.948 9.43776C267.452 9.87858 267.039 10.5398 266.708 11.4215C266.433 12.248 266.295 13.3225 266.295 14.645V30.7625C266.295 36.9891 266.818 42.1963 267.865 46.3841C268.912 50.5719 270.207 54.2362 271.75 57.3771C273.348 60.4628 275.056 63.2731 276.875 65.8078C278.693 68.3425 280.374 71.0976 281.917 74.0732C283.515 76.9936 284.837 80.41 285.884 84.3223C286.931 88.1795 287.454 93.0009 287.454 98.7867V131.022C287.454 131.683 287.372 132.895 287.206 134.659C287.041 136.367 286.462 138.13 285.471 139.948C284.479 141.767 282.908 143.365 280.759 144.742C278.61 146.175 275.552 146.891 271.585 146.891C267.617 146.891 264.559 146.175 262.41 144.742C260.261 143.365 258.691 141.767 257.699 139.948C256.707 138.13 256.128 136.367 255.963 134.659C255.798 132.895 255.715 131.683 255.715 131.022V83.4131H266.295V131.022C266.295 131.683 266.322 132.482 266.378 133.419C266.433 134.3 266.626 135.154 266.956 135.981C267.287 136.808 267.81 137.524 268.527 138.13C269.243 138.681 270.262 138.957 271.585 138.957C272.907 138.957 273.927 138.681 274.643 138.13C275.359 137.524 275.883 136.808 276.213 135.981C276.544 135.154 276.737 134.3 276.792 133.419C276.847 132.482 276.875 131.683 276.875 131.022V109.449Z" fill="white"/>
<path d="M21.1432 239.677C21.1432 240.09 21.0915 240.848 20.9882 241.95C20.8849 243.017 20.5233 244.119 19.9034 245.256C19.2835 246.392 18.302 247.391 16.9589 248.252C15.6157 249.147 13.7043 249.595 11.2247 249.595C8.74511 249.595 6.83374 249.147 5.49061 248.252C4.14748 247.391 3.16597 246.392 2.54606 245.256C1.92616 244.119 1.56455 243.017 1.46123 241.95C1.35791 240.848 1.30625 240.09 1.30625 239.677V166.941C1.30625 166.666 1.32347 166.252 1.35791 165.701C1.39235 165.15 1.49567 164.548 1.66786 163.893C1.84006 163.204 2.13279 162.516 2.54606 161.827C2.95933 161.104 3.52758 160.449 4.2508 159.864C4.97402 159.278 5.90388 158.814 7.04037 158.469C8.17686 158.09 9.57165 157.901 11.2247 157.901C12.8778 157.901 14.2726 158.09 15.4091 158.469C16.5456 158.814 17.4754 159.278 18.1987 159.864C18.9219 160.449 19.4901 161.104 19.9034 161.827C20.3167 162.516 20.6094 163.204 20.7816 163.893C20.9538 164.548 21.0571 165.15 21.0915 165.701C21.126 166.252 21.1432 166.666 21.1432 166.941V239.677ZM7.91857 239.677C7.91857 240.09 7.93579 240.589 7.97023 241.175C8.00467 241.726 8.12521 242.26 8.33184 242.776C8.53848 243.293 8.86565 243.74 9.31336 244.119C9.76107 244.464 10.3982 244.636 11.2247 244.636C12.0513 244.636 12.6884 244.464 13.1361 244.119C13.5838 243.74 13.911 243.293 14.1176 242.776C14.3243 242.26 14.4448 241.726 14.4792 241.175C14.5137 240.589 14.5309 240.09 14.5309 239.677V166.941C14.5309 166.528 14.5137 166.08 14.4792 165.598C14.4448 165.116 14.3243 164.685 14.1176 164.307C13.911 163.893 13.5838 163.549 13.1361 163.273C12.6884 162.998 12.0513 162.86 11.2247 162.86C10.3982 162.86 9.76107 162.998 9.31336 163.273C8.86565 163.549 8.53848 163.893 8.33184 164.307C8.12521 164.685 8.00467 165.116 7.97023 165.598C7.93579 166.08 7.91857 166.528 7.91857 166.941V239.677Z" fill="white"/>
<path d="M47.5925 247.942H40.9802L32.7148 181.819V247.942H27.7555V158.676H34.3678L42.6332 224.799V158.676H47.5925V247.942Z" fill="white"/>
<path d="M79.7242 166.941C79.7242 166.115 79.6037 165.477 79.3626 165.03C79.156 164.582 78.7944 164.255 78.2778 164.048C77.7612 163.842 77.0724 163.721 76.2114 163.687C75.3849 163.652 74.3517 163.635 73.1119 163.635V242.983C74.3517 242.983 75.3849 242.966 76.2114 242.931C77.0724 242.897 77.7612 242.776 78.2778 242.57C78.7944 242.363 79.156 242.036 79.3626 241.588C79.6037 241.14 79.7242 240.503 79.7242 239.677V166.941ZM86.3365 239.677C86.3365 241.743 85.9577 243.344 85.2 244.481C84.4424 245.583 83.4436 246.392 82.2038 246.909C80.964 247.425 79.552 247.735 77.9678 247.839C76.3836 247.908 74.765 247.942 73.1119 247.942H66.4996V158.676H73.1119C74.765 158.676 76.3836 158.727 77.9678 158.831C79.552 158.9 80.964 159.192 82.2038 159.709C83.4436 160.226 84.4424 161.052 85.2 162.189C85.9577 163.291 86.3365 164.875 86.3365 166.941V239.677Z" fill="white"/>
<path d="M107.827 163.635H99.5612V198.35H106.174V203.309H99.5612V242.983H107.827V247.942H92.9489V158.676H107.827V163.635Z" fill="white"/>
<path d="M132.623 195.044H126.01V166.941C126.01 166.115 125.907 165.443 125.701 164.926C125.528 164.375 125.287 163.962 124.977 163.687C124.667 163.377 124.306 163.17 123.892 163.067C123.514 162.929 123.118 162.86 122.704 162.86C122.291 162.86 121.878 162.929 121.464 163.067C121.086 163.17 120.741 163.377 120.431 163.687C120.121 163.962 119.863 164.375 119.656 164.926C119.484 165.443 119.398 166.115 119.398 166.941V239.677C119.398 240.09 119.415 240.589 119.45 241.175C119.484 241.726 119.605 242.26 119.811 242.776C120.018 243.293 120.345 243.74 120.793 244.119C121.241 244.464 121.878 244.636 122.704 244.636C123.531 244.636 124.168 244.464 124.616 244.119C125.063 243.74 125.391 243.293 125.597 242.776C125.804 242.26 125.924 241.726 125.959 241.175C125.993 240.589 126.01 240.09 126.01 239.677V204.962H132.623V239.677C132.623 240.09 132.571 240.848 132.468 241.95C132.364 243.017 132.003 244.119 131.383 245.256C130.763 246.392 129.782 247.391 128.438 248.252C127.095 249.147 125.184 249.595 122.704 249.595C120.225 249.595 118.313 249.147 116.97 248.252C115.627 247.391 114.646 246.392 114.026 245.256C113.406 244.119 113.044 243.017 112.941 241.95C112.837 240.848 112.786 240.09 112.786 239.677V166.941C112.786 165.357 113.079 163.997 113.664 162.86C114.249 161.689 115.007 160.742 115.937 160.019C116.901 159.296 117.969 158.762 119.14 158.417C120.311 158.073 121.499 157.901 122.704 157.901C123.979 157.901 125.201 158.09 126.372 158.469C127.577 158.848 128.645 159.416 129.575 160.174C130.505 160.932 131.245 161.879 131.796 163.015C132.347 164.152 132.623 165.46 132.623 166.941V195.044Z" fill="white"/>
<path d="M159.072 247.942H152.46L145.847 203.309V247.942H139.235V158.676H145.847V200.003L152.46 158.676H159.072L152.46 196.697L151.736 201.656L152.46 206.615L159.072 247.942Z" fill="white"/>
<path d="M202.784 166.941C202.784 164.737 203.231 162.912 204.127 161.465C205.022 159.984 206.141 158.882 207.485 158.159C208.828 157.402 210.291 157.023 211.876 157.023C213.46 157.023 214.923 157.402 216.267 158.159C217.61 158.882 218.729 159.984 219.624 161.465C220.52 162.912 220.967 164.737 220.967 166.941C220.967 167.974 220.95 168.784 220.916 169.369C220.916 169.955 220.864 170.592 220.761 171.28C220.658 171.969 220.503 172.865 220.296 173.967C220.089 175.069 219.797 176.653 219.418 178.719C219.039 180.751 218.557 183.403 217.971 186.675C217.42 189.947 216.749 194.131 215.957 199.228C215.164 204.29 214.217 210.403 213.115 217.567C212.048 224.73 210.808 233.202 209.396 242.983H220.967V247.942H202.784C204.264 237.576 205.573 228.553 206.71 220.873C207.846 213.193 208.828 206.581 209.654 201.036C210.481 195.491 211.17 190.894 211.721 187.243C212.272 183.558 212.719 180.562 213.064 178.254C213.408 175.947 213.666 174.173 213.839 172.934C214.011 171.694 214.131 170.729 214.2 170.041C214.303 169.352 214.355 168.818 214.355 168.439V166.941C214.355 165.288 214.097 164.048 213.58 163.222C213.064 162.395 212.495 161.982 211.876 161.982C211.256 161.982 210.687 162.395 210.171 163.222C209.654 164.048 209.396 165.288 209.396 166.941V181.819H202.784V166.941Z" fill="white"/>
<path d="M242.458 239.677C242.458 241.33 242.199 242.776 241.683 244.016C241.166 245.256 240.477 246.289 239.616 247.116C238.755 247.942 237.774 248.562 236.672 248.975C235.604 249.389 234.502 249.595 233.366 249.595C232.229 249.595 231.11 249.389 230.008 248.975C228.94 248.562 227.976 247.942 227.115 247.116C226.254 246.289 225.565 245.256 225.049 244.016C224.532 242.776 224.274 241.33 224.274 239.677V166.941C224.274 165.288 224.532 163.842 225.049 162.602C225.565 161.362 226.254 160.329 227.115 159.502C227.976 158.676 228.94 158.056 230.008 157.643C231.11 157.229 232.229 157.023 233.366 157.023C234.502 157.023 235.604 157.229 236.672 157.643C237.774 158.056 238.755 158.676 239.616 159.502C240.477 160.329 241.166 161.362 241.683 162.602C242.199 163.842 242.458 165.288 242.458 166.941V239.677ZM235.845 166.941C235.845 165.701 235.587 164.771 235.07 164.152C234.554 163.532 233.985 163.222 233.366 163.222C232.746 163.222 232.177 163.532 231.661 164.152C231.144 164.771 230.886 165.701 230.886 166.941V239.677C230.886 240.916 231.144 241.846 231.661 242.466C232.177 243.086 232.746 243.396 233.366 243.396C233.985 243.396 234.554 243.086 235.07 242.466C235.587 241.846 235.845 240.916 235.845 239.677V166.941Z" fill="white"/>
<path d="M245.764 166.941C245.764 164.737 246.211 162.912 247.107 161.465C248.002 159.984 249.121 158.882 250.465 158.159C251.808 157.402 253.271 157.023 254.856 157.023C256.44 157.023 257.903 157.402 259.247 158.159C260.59 158.882 261.709 159.984 262.604 161.465C263.5 162.912 263.948 164.737 263.948 166.941C263.948 167.974 263.93 168.784 263.896 169.369C263.896 169.955 263.844 170.592 263.741 171.28C263.638 171.969 263.483 172.865 263.276 173.967C263.069 175.069 262.777 176.653 262.398 178.719C262.019 180.751 261.537 183.403 260.951 186.675C260.4 189.947 259.729 194.131 258.937 199.228C258.145 204.29 257.197 210.403 256.095 217.567C255.028 224.73 253.788 233.202 252.376 242.983H263.948V247.942H245.764C247.245 237.576 248.553 228.553 249.69 220.873C250.826 213.193 251.808 206.581 252.634 201.036C253.461 195.491 254.15 190.894 254.701 187.243C255.252 183.558 255.699 180.562 256.044 178.254C256.388 175.947 256.646 174.173 256.819 172.934C256.991 171.694 257.111 170.729 257.18 170.041C257.284 169.352 257.335 168.818 257.335 168.439V166.941C257.335 165.288 257.077 164.048 256.56 163.222C256.044 162.395 255.476 161.982 254.856 161.982C254.236 161.982 253.667 162.395 253.151 163.222C252.634 164.048 252.376 165.288 252.376 166.941V181.819H245.764V166.941Z" fill="white"/>
<path d="M267.254 166.941C267.254 164.737 267.701 162.912 268.597 161.465C269.492 159.984 270.612 158.882 271.955 158.159C273.298 157.402 274.761 157.023 276.346 157.023C277.93 157.023 279.394 157.402 280.737 158.159C282.08 158.882 283.199 159.984 284.094 161.465C284.99 162.912 285.438 164.737 285.438 166.941C285.438 167.974 285.42 168.784 285.386 169.369C285.386 169.955 285.334 170.592 285.231 171.28C285.128 171.969 284.973 172.865 284.766 173.967C284.559 175.069 284.267 176.653 283.888 178.719C283.509 180.751 283.027 183.403 282.441 186.675C281.89 189.947 281.219 194.131 280.427 199.228C279.635 204.29 278.688 210.403 277.585 217.567C276.518 224.73 275.278 233.202 273.866 242.983H285.438V247.942H267.254C268.735 237.576 270.043 228.553 271.18 220.873C272.316 213.193 273.298 206.581 274.124 201.036C274.951 195.491 275.64 190.894 276.191 187.243C276.742 183.558 277.189 180.562 277.534 178.254C277.878 175.947 278.136 174.173 278.309 172.934C278.481 171.694 278.601 170.729 278.67 170.041C278.774 169.352 278.825 168.818 278.825 168.439V166.941C278.825 165.288 278.567 164.048 278.05 163.222C277.534 162.395 276.966 161.982 276.346 161.982C275.726 161.982 275.157 162.395 274.641 163.222C274.124 164.048 273.866 165.288 273.866 166.941V181.819H267.254V166.941Z" fill="white"/>
</svg>
