<svg version="1" xmlns="http://www.w3.org/2000/svg" width="853.333" height="853.333" viewBox="0 0 640.000000 640.000000"><path d="M265 118.7c-24.9.8-47.8 8-57.9 18.1-14.1 14.1-14.5 31.6-1.7 62.9 8.9 21.6 21.1 48.6 27.1 59.8 10.3 19.1 15.9 37.9 21 70 6.2 39.2 11.6 49.1 29.2 53.5 10 2.6 16.7-1.8 28.8-18.5 2.8-3.8 6.2-7.7 7.6-8.8 8.7-6.3 27.1 3.6 35.2 19 5.6 10.7 7.1 19 7.1 38.8.1 9.3-.3 20.4-.7 24.5-.4 4.1-1.4 14.2-2.3 22.5-2.2 20.8-2.9 52.2-1.4 61 3.3 18.8 15.6 37.8 28.3 43.6 6.2 2.8 15.8 2.5 22.4-.6 10-4.6 20.1-16.3 26.4-30.2 11.8-26.2 12.7-64.6 3.4-146.3-2.7-23.6-3-32.5-3-90.5 0-64.5 0-65.4-4.5-84-2.7-11.1-5.1-17.8-10.1-28-4.9-9.9-5.7-10.9-15.3-21.1-24.7-26.2-73.2-44.6-120.6-45.6-6.9-.2-15.4-.2-19-.1z"/></svg>