<svg version="1" xmlns="http://www.w3.org/2000/svg" width="682.667" height="682.667" viewBox="0 0 512.000000 512.000000"><path d="M209 99.6c0 1.4-.5 3.5-1.2 4.7-1 1.9-.9 2 .4 1 .8-.7 1.7-1.1 1.9-.9.2.2.5-1.3.6-3.5 0-2.1-.3-3.9-.8-3.9s-.9 1.2-.9 2.6z"/><path d="M203.5 101c-.3.5-.1 1 .6 1 1.7 0 .5 1.1-1.8 1.5-1 .2-2 .4-2.3.6-.3.1-1.1.3-1.9.3-.8.1-1.6.7-1.9 1.5-.3.8 0 1.1.6.7.6-.3 1.3-.2 1.7.4.3.5-.1 1-.9 1-1.9 0-4.6 3.8-4 5.5.3.7.1 1.6-.5 2-.6.3-1.1 2.6-1.1 5.1 0 2.4-.4 4.4-.9 4.4s-1.2 2.6-1.6 5.7c-1.7 15.9-8.2 31-17.4 40.6-6.6 7-18.4 13.7-23.9 13.7-2.4 0-4.1-.4-3.8-.9.3-.5-.1-1.2-1-1.5-2.4-.9-2.9-.7-1.7.5.6.6.9 1.8.6 2.5-.3.8.1 1.4 1.1 1.4.9 0 1.6.5 1.6 1 0 .6-1.6.8-4.2.4-3.5-.6-4-.5-3.5.8.7 2-1.9 2.8-9.8 2.8-7.7 0-13-2.4-19.9-9-6.3-6-11.7-16.1-14.2-26.6-1-3.8-2-7.3-2.5-7.8-1.1-1.2-17.7 8.5-28.9 17-32.8 24.8-52 56.3-59.6 97.9-2.4 12.9-2.4 51.2 0 67.9 8.4 58.3 48.6 119.1 93 140.6 14 6.8 24.1 9.2 39.1 9.3 23.6.1 40.8-6.2 83.3-30.7 24.4-14 27.5-15.6 38.7-19.6 18.6-6.5 35.7-9.3 71-11.5 54.6-3.4 68-6.1 94-19 16.6-8.3 29-17.1 43.3-31 24.4-23.5 40-50.4 44.7-77.2 2.2-12.6 1.9-32.6-.5-43.8-6.4-29-27.6-52-63.6-69.2-10.5-5-30.4-12.8-30.9-12.1-.1.2-.8 3.6-1.5 7.7s-2.3 10.6-3.6 14.3c-2.2 6.6-2.2 6.8-.3 6.8 1 0 1.9-.4 1.9-.9 0-1.4 5.7-2.4 11.9-2.2 7.1.3 16.9 2.8 20.3 5.1 1.5 1.1 4.4 2.9 6.5 4.1 6.6 3.7 14.2 10 17.1 14.3 2.8 4.1 5.9 13.2 4.9 14.2-.3.3-.1 1.8.3 3.4.6 2.1.4 3-.6 3.4-.8.3-1.4 1.2-1.4 2.1 0 .8-.4 1.5-1 1.5-.5 0-1 .5-1 1 0 1.5-5.5 8.8-8.2 10.9-2.7 2.2-18.9 8.1-22.1 8.1-1.6 0-.7 1.2 4 5.5 8.4 7.5 10.7 13.1 10.7 25-.2 29.5-24 53.7-65.2 66.2-11.2 3.4-27.7 3.8-35.8.9-5.4-2-14.3-8.6-9.5-7.1 2 .6 2.3.4 1.8-.9-.4-1.1-.1-1.6.9-1.6 1.1 0 1.4-.5 1-1.6-.5-1.4-.4-1.5.9-.4.9.8 1.5.8 1.5.2 0-.6-.4-1.4-1-1.7-.5-.3-1-1.8-1-3.2 0-2.3.3-2.5 3-2.1 2.5.4 3 .2 2.5-1.1-.4-.9.3-2.2 1.7-3.3 1.7-1.4 1.9-1.7.4-1.2-1.6.6-1.7.3-1.1-2.7 1.2-5.2 1.3-13.3.2-14.7-.6-.8-.5-1.8.4-2.9 1.2-1.4 1.2-1.5 0-.9-1 .7-1.1.3-.6-1.5.5-1.3.9-3.5 1.1-4.8.1-1.3.7-2.8 1.3-3.4 1.9-1.9 1.2-3.1-.7-1.4-1.8 1.6-1.9 1.6-1.9-1.3 0-1.6.3-2.7.7-2.5.4.2 2.4-1.5 4.5-3.8 2.2-2.3 4.2-4.2 4.6-4.2.4 0 1.1-.3 1.5-.8.4-.4.2-.7-.5-.7-.6 0-1.8-.6-2.5-1.3-1.2-1-1-1.7 1-4.5 1.4-1.7 2.2-3.2 1.8-3.2-.3 0-.1-.7.7-1.6.7-.8 2.1-1.3 3.1-1.1 1 .3 1.6.1 1.2-.4-.7-1.2 3.9-5.2 9.8-8.4 4.5-2.5 24.4-9.5 27-9.5.7 0 1.9-.4 2.7-.9 1.2-.8 1.2-1.2-.2-2.5-.8-.9-1.8-1.6-2.2-1.6-1.1 0-3.4-2.7-2.9-3.3.3-.3-.1-1.8-.9-3.4-2.3-4.4-4.1-14-4.3-22.8-.1-4.4-.2-8.8-.3-9.8-.1-1.3-1.9 0-6.3 4.8-7.3 7.8-11 10.5-23.2 17-8.4 4.5-9.3 4.7-14.7 4.2-3.7-.3-5.9-.1-6.2.6-.2.6-.9.7-1.6.3-.8-.5-.9-1.2-.2-2s.3-1.2-1.6-1.4c-3.8-.3-7.3-2.9-7.3-5.5-.1-2.6-1.5-5.2-5.3-9.7-2.7-3.1-2.9-3.2-4.2-1.4-.9 1.2-1.4 1.4-1.5.6 0-.7-.7-2-1.5-2.8-1.3-1.4-1.6-1.3-2.3.4-.6 1.7-1 1.8-2.2.9-1.8-1.4-2.5-6.3-1-7.2 1.9-1.2 1-2.2-1.4-1.8-1.7.4-2.3 1-1.9 2.2.4 1.3.1 1.2-1.1-.3-1.7-2.1-1.2-4 .9-3.2 1.9.7 2.6-.5 1.1-2-.7-.7-2.3-1-3.5-.7-1.7.4-2.4-.1-3.6-2.8-1.2-2.9-2-3.2-1.6-.7.2 1.7-1.8.7-2.4-1.2-.3-1.1-1.1-2-1.6-2-.6 0-.6.7.1 1.9 1.8 3.4 1.1 3.7-1.5.6-2.1-2.6-2.4-2.8-2.5-1 0 1.9 3.3 5.8 4.2 5 .2-.2.4 1 .5 2.8.1 1.8-.1 2.4-.4 1.4-.3-1.1-1.1-1.6-1.9-1.3-.8.3-1.4-.1-1.4-.9 0-.7-.6-2-1.3-2.7-.8-.7-1.6-2-2-2.8-.4-1.1-.6-.9-.6.5-.1 1.2-.7 2.7-1.3 3.4-1 1-1 1.5-.1 1.8 2.1.8 4.8 3.7 10 10.8 13.5 18.4 23.4 45.4 29.4 80 3 17.3 3.2 48 .5 62.5-4.8 25.3-15.1 42.6-29.8 50.1-18.1 9.2-31.9 10.1-47.7 3.2-11.9-5.3-21.3-13.8-45.4-41.1-17.9-20.4-26.7-26.2-54.6-36.7-21.2-7.9-30.4-12.9-39-20.9-5.5-5.3-12.2-14.3-14.6-19.9-1.4-3.2-1.4-3.1-1.5 3.5 0 10.6 4.1 26.9 8 31.3 1 1.1 2.4 3.2 3.1 4.6 2.1 4 14.2 17.7 16.2 18.4 1 .4 1.6.9 1.3 1.2-.3.3 1.2 1.9 3.2 3.7 7.2 6.1 9.5 8.1 10.6 9.4.6.8 2 2.4 3.1 3.5 3.6 3.9 7.5 9.5 7.5 10.9 0 .8.7 2.4 1.6 3.7.9 1.3 2.1 3.9 2.6 6 1.2 4.9 1.9 22.1.9 22.1-.5 0-1.4 1.3-2.1 3-.7 1.6-1.6 3-2.1 3s-3.5 2.6-6.7 5.8c-3.2 3.2-7.8 6.9-10.3 8.3-2.4 1.3-5.8 3.4-7.6 4.7-5.4 3.9-17.9 6.3-29.2 5.5-14.5-1-22.1-4.9-34.3-17.6-7.4-7.6-13.9-15.2-15.9-18.6-.8-1.4-3-5-4.7-7.9-1.8-2.9-3.2-5.8-3.2-6.3s-.9-2.8-1.9-5.2c-3.2-7.1-10.2-33.3-11.6-43.7-.4-2.4-.8-4.7-1.1-5.1-.7-1.2-3.3-25.4-4.1-37.9-1.1-16.9-.8-37.4.6-49.3 1.9-16.3 7.6-34.8 13.7-44.2C46.9 199.2 64.4 184 70 184c1 0 2.2-.5 2.5-1 .8-1.3 5.5-1.3 5.5.1 0 .5.5.7 1.1.4.6-.4 2.9 1.3 5.3 3.7 3.3 3.4 4.8 6.1 6.9 12.8 5.8 18.1 10.6 42.4 10.9 54.8.3 9.1 1 11.4 2.2 6.8 1-4.1 12.1-19.9 18.7-26.6 12.5-12.6 35.7-27 49.1-30.4 4-1.1 9.4-3 12.1-4.3 2.6-1.3 4.7-2.1 4.7-1.8 0 .3 1.4-.2 3-1 1.7-.9 2.8-2 2.5-2.5-.6-1 .2-1.2 9-3.1 17.9-3.8 20.8-4.1 35-4.1 14 0 15.6.2 24.3 3.1 9.7 3.2 20.2 8.8 26.3 14 2 1.7 3.8 3.1 4.1 3.1.2 0 .5-4.8.5-10.8 0-6.7.7-13.1 1.7-17.2 3.3-12.8 10.8-29.6 12.6-28.5.5.3 1.2 0 1.6-.6.4-.8.3-.9-.4-.5-1.7 1-1.5-.6.3-3 .8-1 1.5-2.4 1.5-3 0-.6-4.2-1.8-9.4-2.8l-9.4-1.6-5.9 5.6c-6.5 6.3-19.7 15.4-26.4 18.2-3.8 1.6-5.6 1.8-11.2 1.3-.5-.1-.6-.5-.3-1 .3-.4 3-.8 6-.9 3.7 0 6.3-.6 8-1.8 3.7-2.8 3.2-3.4-1.6-1.7-3.7 1.3-5.3 1.2-13.4-.1-10.8-1.9-10.4-1.9-10.4-.6 0 .5 1.1 1 2.5 1s2.5.4 2.5 1c0 .5-1 1-2.2 1l-2.3.1 2.4 1.9c2.2 1.9 2.2 2 .3 2-1.1 0-2.2-.7-2.5-1.4-.5-1.3-1-1.3-3.7.1-2 1-4.5 1.3-6.7 1-2.8-.5-3.4-.3-2.9.9.3.8.2 1.3-.3 1-.5-.3-1.4.1-2.1.9-1.3 1.6-.9 1.8 3.5 1.7 1.7-.1 1.7 0 .3.4-1 .3-1.8 1-1.8 1.6 0 .6-1.6.7-4.2.3-12.4-2-24.1-15.5-26.3-30.2-.4-2.9-.1-4.4 1-5.3 1.6-1.3 1.9-.7 1.6 3.5-.1 1.9-.1 1.9 1 .2.6-1 .9-2.6.6-3.6-.5-1.9 1.9-4.5 3.3-3.6.6.4.7 1.1.4 1.7-.4.6-.2.8.4.5 1.3-.9.4-4.7-1.2-4.8-.6 0 0-.5 1.3-1 1.5-.6 2.1-1.5 1.7-2.4-.3-.9.1-1.5 1-1.5s1.4.6 1.1 1.3c-.3.8-.1 2 .5 2.8.8 1.1.9 1.1.5-.3-.3-.9-.1-1.8.5-2 .7-.3.9-1.2.5-2.1-.4-1-1.2-1.4-2.2-1.1-1.2.5-1.4 0-.8-2.7.5-2.7.4-3.1-1-2.6-2.1.8-2.1.7-.3-2.9 1.9-3.8 3.2-9.5 1.7-7.4-.6.8-1.1 1-1.1.5 0-.6-.5-.3-1 .5-.8 1.3-1 1.3-1-.1 0-.9.9-2.8 2-4.2 2.1-2.6 2.7-5.7 1.1-5.7-.6 0-1.3.4-1.6 1zm148.2 142.6c-.3.3-1.2.4-1.9.1-.8-.3-.5-.6.6-.6 1.1-.1 1.7.2 1.3.5zm-14.2 3.4c1.7.7 1.5.9-1.2.9-1.8.1-3.3-.4-3.3-.9 0-1.2 1.7-1.2 4.5 0zm20.5 32.4c0 .2-.8 1-1.7 1.7-1.6 1.3-1.7 1.2-.4-.4 1.3-1.6 2.1-2.1 2.1-1.3z"/><path d="M208.5 109.1c-.4.6-.5 1.2-.2 1.5.2.3.7-.2 1-1.1.7-1.7.1-2-.8-.4zM208.5 115c-.3.5-.1 1 .4 1 .6 0 1.1-.5 1.1-1 0-.6-.2-1-.4-1-.3 0-.8.4-1.1 1zM335.7 126.8c-1.5 1.6-1.5 1.9-.2 1.9.8 0 1.3-.3 1-.5-.3-.3 0-1.1.6-1.9 1.7-2 .5-1.6-1.4.5zM326.2 129.8c-4.8 3.6-15.1 15.6-15.2 17.7 0 .5 1.5-.6 3.3-2.6 1.7-1.9 4.3-4.4 5.6-5.4 2.3-1.9 2.4-1.9 1.7-.1-.5 1.6-.4 1.7.9.6.8-.7 1.5-1.7 1.5-2.3 0-1.1 5.9-6.7 7.1-6.7 1 0 1.8-3.9.9-4.5-.4-.3-3.1 1.2-5.8 3.3zM227 134.3c0 .7.7 2.2 1.5 3.3 1.3 1.7 1.4 1.6.4-1.4-1.1-3.3-1.9-4.1-1.9-1.9zM330.5 137c-1.6 1.7-2.5 3-2.1 3 1.1 0 6.1-4.9 5.5-5.5-.3-.2-1.8.9-3.4 2.5zM199.1 137.6c0 1.1.3 1.4.6.6.3-.7.2-1.6-.1-1.9-.3-.4-.6.2-.5 1.3zM337 139c0 .5.5 1 1 1 .6 0 1-.5 1-1 0-.6-.4-1-1-1-.5 0-1 .4-1 1zM229 140.5c0 1.2 3.2 6.7 3.6 6.3.7-.7-1.7-6.8-2.7-6.8-.5 0-.9.2-.9.5zM325.7 142.5c-.4.8-.2 1.7.3 2 .6.4 1-.3 1-1.4 0-2.5-.6-2.7-1.3-.6zM316 146.1c0 .5.5.7 1 .4.6-.3 1-.8 1-1.1 0-.2-.4-.4-1-.4-.5 0-1 .5-1 1.1zM321.5 147c-1.7 1.8-1.7 2-.1 2 .9 0 1.9-.7 2.3-1.5.9-2.5-.2-2.7-2.2-.5zM241.6 153.5c2.6 2 5.1 2 3 0-.8-.8-2.3-1.5-3.2-1.5-1.6 0-1.6.1.2 1.5zM310.4 158.1c-.4.7-.3.9.4.5.6-.3 1.5.2 2.1 1.1.9 1.7 1.1 1.7 2.7.1 1-1 1.4-2.1 1-2.5-.4-.4-1.1-.1-1.6.7-.7 1.1-1.1 1.1-2.3.1-1.2-.9-1.7-.9-2.3 0zM220.4 159.5c2.1 1.6 3.2 1.3 2.1-.4-.3-.6-1.4-1.1-2.3-1.1-1.5.1-1.5.2.2 1.5zM309 161.3c0 .6-.8 1.9-1.7 3-1.8 2-1.8 2 .9.3 3.1-2 4.2-4.3 2.2-4.3-.8 0-1.4.5-1.4 1zM304 163.5c-.6.8-1 1.9-.8 2.6.2.6.9 0 1.6-1.5 1.3-2.9 1-3.3-.8-1.1zM311.7 197.7c-.4.3-.7 1.6-.6 2.7 0 1.9.1 1.9 1-.3 1-2.4.8-3.6-.4-2.4zM320 204c0 .5.5 1 1.1 1 .5 0 .7-.5.4-1-.3-.6-.8-1-1.1-1-.2 0-.4.4-.4 1zM310.5 205c.3.5 1.1 1 1.6 1 .6 0 .7-.5.4-1-.3-.6-1.1-1-1.6-1-.6 0-.7.4-.4 1zM325 204.7c0 .7.5 1.5 1 1.8.6.4 2.1 2.7 3.4 5.3 1.9 3.6 2.6 4.3 3.1 3 .8-1.9-2.2-8.1-3.5-7.3-.5.3-1.6-.5-2.4-1.7-.9-1.2-1.6-1.7-1.6-1.1zM318 207c0 1.9.3 2.1 1.2 1.2.9-.9.9-1.5 0-2.4-.9-.9-1.2-.7-1.2 1.2zM325 214.9c0 .5.7 1.5 1.7 2.2 1.5 1.3 1.5 1.2.4-.9-1.2-2.3-2.1-2.8-2.1-1.3zM334.5 221.9c-.7 1.2 4.3 4.4 5.5 3.6.6-.3 1-.2 1 .3 0 .6.7 1.2 1.4 1.5 1 .4 1.3.1 1-.8-.7-1.8-8.2-5.7-8.9-4.6zM338 231.6c0 .8.5 1.2 1 .9.6-.3 1-1 1-1.6 0-.5-.4-.9-1-.9-.5 0-1 .7-1 1.6zM338.6 235.5c2.5 1.9 4 1.9 2 0-.8-.8-2-1.5-2.7-1.5-.7 0-.4.6.7 1.5zM352.7 235.1c.7.7 1.5 1 1.8.7.3-.3-.2-.9-1.2-1.2-1.4-.6-1.5-.5-.6.5zM362 285.5c-.8.9-.8 1.5-.2 1.5 1.2 0 2.6-1.9 1.9-2.6-.2-.2-1 .2-1.7 1.1zM368 292.2c0 .6-.7.7-1.6.4-1.4-.5-1.5-.4-.5.8 1.6 1.9.6 5.3-2 6.6-1 .6-1.9 1.9-1.9 2.8 0 1-.7 2.8-1.6 4-1.4 2-1.4 2.2.1 2.2.8 0 2-1.1 2.5-2.5s1.6-2.5 2.4-2.5c.9 0 1.9-1.6 2.6-3.8.5-2.2 1.9-4.7 3-5.7 2.7-2.4 2.5-3.3-.5-3.3-1.4 0-2.5.5-2.5 1zM360 293.9c0 1.7 1.8 2.1 2.4.6.3-.9 0-1.5-.9-1.5-.8 0-1.5.4-1.5.9z"/><path d="M363.5 295.1c-1 1.5.3 2.5 1.6 1.2.7-.7.7-1.3.1-1.7-.6-.3-1.4-.1-1.7.5zM357.5 298c-.3.5.1 1 .9 1s1.8-.5 2.1-1c.3-.6-.1-1-.9-1s-1.8.4-2.1 1zM366 317.9c0 .6.4 1.3 1 1.6.6.3.7-.1.4-.9-.7-1.8-1.4-2.1-1.4-.7zM361.6 320.5c.4.8.7 1.5.9 1.5.2 0 .5-.7.9-1.5.3-.9 0-1.5-.9-1.5s-1.2.6-.9 1.5zM366 322c-.8.5-1.2 1.2-.9 1.5.4.3 1.2-.1 1.9-1 1.4-1.7 1.1-1.9-1-.5zM384 336c0 .5.5 1 1.1 1 .5 0 .7-.5.4-1-.3-.6-.8-1-1.1-1-.2 0-.4.4-.4 1zM389.5 337c.3.5.8 1 1.1 1 .2 0 .4-.5.4-1 0-.6-.5-1-1.1-1-.5 0-.7.4-.4 1zM276 417c0 .5.5 1 1.1 1 .5 0 .7-.5.4-1-.3-.6-.8-1-1.1-1-.2 0-.4.4-.4 1z"/></svg>